{"glyphs":{"0":{"ha":1135,"x_min":-6,"x_max":996,"o":"m 996 143 l 851 143 l 851 0 l 139 0 l 139 144 l -6 144 l -6 857 l 139 857 l 139 1000 l 851 1000 l 851 857 l 996 857 l 996 143 m 708 143 l 708 857 l 282 857 l 282 143 l 708 143 z "},"1":{"ha":1135,"x_min":139,"x_max":708,"o":"m 708 0 l 139 0 l 139 139 l 282 139 l 282 718 l 139 718 l 139 857 l 282 857 l 282 1000 l 564 1000 l 564 139 l 708 139 l 708 0 z "},"2":{"ha":1135,"x_min":-6,"x_max":996,"o":"m 996 575 l 851 575 l 851 431 l 569 431 l 569 426 l 564 426 l 564 288 l 421 288 l 421 139 l 996 139 l 996 0 l -6 0 l -6 139 l 129 139 l 129 282 l 282 282 l 282 426 l 564 426 l 564 431 l 569 431 l 569 569 l 714 569 l 714 857 l 142 857 l 142 718 l -6 718 l -6 857 l 139 857 l 139 1000 l 851 1000 l 851 865 l 996 857 l 996 575 z "},"3":{"ha":1135,"x_min":-6,"x_max":996,"o":"m 996 143 l 851 143 l 851 0 l 139 0 l 139 139 l 133 139 l 133 144 l -6 144 l -6 282 l 133 282 l 133 144 l 139 144 l 139 139 l 704 139 l 704 426 l 282 426 l 282 569 l 426 569 l 426 714 l 569 714 l 569 863 l -6 863 l -6 1000 l 996 1000 l 996 863 l 851 863 l 851 718 l 717 718 l 717 569 l 851 569 l 851 435 l 996 425 l 996 143 z "},"4":{"ha":1135,"x_min":-6,"x_max":996,"o":"m 996 143 l 851 143 l 851 0 l 569 0 l 569 144 l -6 144 l -6 569 l 139 569 q 139 714 139 703 l 282 714 l 282 857 l 426 857 l 426 1000 l 851 1000 l 851 282 l 996 282 l 996 143 m 564 288 l 564 857 l 426 857 l 426 714 l 282 714 l 282 569 l 139 569 l 139 288 l 564 288 z "},"5":{"ha":1135,"x_min":-6,"x_max":996,"o":"m 996 143 l 851 143 l 851 0 l 139 0 l 139 139 l 133 139 l 133 144 l -6 144 l -6 282 l 133 282 l 133 144 l 139 144 l 139 139 l 714 139 l 714 571 l -6 571 l -6 1000 l 996 1000 l 996 863 l 278 863 l 278 713 l 851 713 l 851 578 l 996 569 l 996 143 z "},"6":{"ha":1135,"x_min":-6,"x_max":996,"o":"m 996 143 l 851 143 l 851 0 l 139 0 l 139 144 l -6 144 l -6 714 l 139 714 l 139 857 l 274 857 l 274 1000 l 851 1000 l 851 863 l 421 863 l 421 718 l 286 718 l 286 569 l 851 569 l 851 425 l 996 425 l 996 143 m 708 143 l 708 426 l 282 426 l 282 143 l 708 143 z "},"7":{"ha":1135,"x_min":-6,"x_max":996,"o":"m 996 575 l 851 575 l 851 431 l 717 431 l 717 288 l 574 288 l 574 0 l 282 0 l 282 282 l 426 282 l 426 426 l 561 426 l 561 569 l 704 569 l 704 863 l -6 863 l -6 1000 l 996 1000 l 996 575 z "},"8":{"ha":1135,"x_min":-6,"x_max":996,"o":"m 996 143 l 851 143 l 851 0 l 139 0 l 139 144 l -6 144 l -6 426 l 139 426 l 139 575 l -6 575 l -6 857 l 139 857 l 139 1000 l 851 1000 l 851 857 l 996 857 l 996 575 l 851 575 l 851 425 l 996 425 l 996 143 m 708 575 l 708 857 l 282 857 l 282 575 l 708 575 m 708 143 l 708 426 l 282 426 l 282 143 l 708 143 z "},"9":{"ha":1135,"x_min":-6,"x_max":996,"o":"m 996 288 l 851 288 l 851 143 l 717 143 l 717 0 l 139 0 l 139 139 l 569 139 l 569 282 l 704 282 l 704 431 l 139 431 l 139 575 l -6 575 l -6 857 l 139 857 l 139 1000 l 851 1000 l 851 857 l 996 857 l 996 288 m 708 575 l 708 857 l 282 857 l 282 575 l 708 575 z "}," ":{"ha":1108,"x_min":0,"x_max":0,"o":""},"!":{"ha":1135,"x_min":426,"x_max":708,"o":"m 708 288 l 426 288 l 426 1000 l 708 1000 l 708 288 m 708 0 l 426 0 l 426 139 l 708 139 l 708 0 z "},"\"":{"ha":1135,"x_min":139,"x_max":851,"o":"m 851 575 l 714 575 l 714 569 l 708 569 l 708 431 l 569 431 l 569 569 l 708 569 l 708 575 l 714 575 l 714 718 l 569 718 l 569 1000 l 851 1000 l 851 575 m 421 575 l 282 575 l 282 569 l 276 569 l 276 431 l 139 431 l 139 569 l 276 569 l 276 575 l 282 575 l 282 718 l 139 718 l 139 1000 l 421 1000 l 421 575 z "},"#":{"ha":1135,"x_min":139,"x_max":976,"o":"m 976 293 l 824 293 l 825 0 l 692 0 l 692 293 l 419 293 l 419 0 l 285 0 l 283 293 l 139 293 l 139 431 l 283 431 l 283 569 l 139 569 l 139 708 l 283 708 l 283 1001 l 421 1001 l 421 708 l 690 708 l 690 1001 l 822 1001 l 824 708 l 976 708 l 976 569 l 824 569 l 824 431 l 976 431 l 976 293 m 692 431 l 692 569 l 421 569 l 419 431 l 692 431 z "},"'":{"ha":1135,"x_min":426,"x_max":708,"o":"m 708 575 l 569 575 l 569 569 l 564 569 l 564 431 l 426 431 l 426 569 l 564 569 l 564 575 l 569 575 l 569 718 l 426 718 l 426 1000 l 708 1000 l 708 575 z "},"(":{"ha":1135,"x_min":271,"x_max":860,"o":"m 860 1000 l 858 863 l 553 863 l 553 143 l 857 142 l 856 0 l 415 0 l 415 146 l 271 144 l 271 857 l 415 857 l 415 1000 l 860 1000 z "},")":{"ha":1135,"x_min":267,"x_max":856,"o":"m 856 144 l 711 146 l 713 0 l 271 0 l 269 142 l 574 143 l 574 863 l 268 863 l 267 1000 l 713 1000 l 713 857 l 856 857 l 856 144 z "},"+":{"ha":1135,"x_min":139,"x_max":851,"o":"m 851 431 l 568 431 l 568 139 l 429 139 l 429 431 l 139 431 l 139 569 l 429 569 l 429 853 l 568 853 l 568 569 l 851 569 l 851 431 z "},",":{"ha":1135,"x_min":426,"x_max":708,"o":"m 708 -144 l 571 -144 l 571 -149 l 565 -149 l 565 -287 l 426 -287 l 426 -149 l 565 -149 l 565 -144 l 571 -144 l 571 0 l 426 0 l 426 282 l 708 282 l 708 -144 z "},"-":{"ha":1135,"x_min":139,"x_max":851,"o":"m 851 431 l 139 431 l 139 569 l 851 569 l 851 431 z "},"‐":{"ha":1135,"x_min":139,"x_max":851,"o":"m 851 431 l 139 431 l 139 569 l 851 569 l 851 431 z "},".":{"ha":1135,"x_min":426,"x_max":708,"o":"m 708 0 l 426 0 l 426 282 l 708 282 l 708 0 z "},"/":{"ha":1135,"x_min":139,"x_max":996,"o":"m 996 863 l 857 863 l 857 857 l 851 857 l 851 718 l 714 718 l 714 714 l 708 714 l 708 575 l 569 575 l 569 569 l 564 569 l 564 431 l 426 431 l 426 426 l 421 426 l 421 288 l 282 288 l 282 282 l 276 282 l 276 143 l 139 143 l 139 282 l 276 282 l 276 288 l 282 288 l 282 426 l 421 426 l 421 431 l 426 431 l 426 569 l 564 569 l 564 575 l 569 575 l 569 714 l 708 714 l 708 718 l 714 718 l 714 857 l 851 857 l 851 863 l 857 863 l 857 1000 l 996 1000 l 996 863 z "},":":{"ha":1135,"x_min":426,"x_max":708,"o":"m 708 718 l 426 718 l 426 1000 l 708 1000 l 708 718 m 708 143 l 426 143 l 426 426 l 708 426 l 708 143 z "},";":{"ha":1135,"x_min":426,"x_max":708,"o":"m 708 718 l 426 718 l 426 1000 l 708 1000 l 708 718 m 708 0 l 569 0 l 569 -6 l 564 -6 l 564 -143 l 426 -143 l 426 -6 l 564 -6 l 564 0 l 569 0 l 569 144 l 426 144 l 426 426 l 708 426 l 708 0 z "},"<":{"ha":1135,"x_min":276,"x_max":996,"o":"m 996 0 l 704 0 l 704 144 l 563 144 l 561 289 l 425 288 l 425 426 l 276 426 l 276 574 l 426 574 l 426 718 l 563 718 l 563 861 l 704 861 l 704 1000 l 996 1000 l 996 858 l 851 858 l 851 714 l 717 714 l 717 571 l 576 571 l 576 426 l 718 425 l 715 289 l 853 289 l 853 143 l 996 143 l 996 0 z "},"=":{"ha":1135,"x_min":139,"x_max":851,"o":"m 851 569 l 139 569 l 139 708 l 851 708 l 851 569 m 851 293 l 139 293 l 139 431 l 851 431 l 851 293 z "},">":{"ha":1135,"x_min":132,"x_max":850,"o":"m 850 426 l 701 426 l 701 288 l 565 289 l 564 144 l 424 144 l 422 0 l 132 0 l 132 143 l 275 143 l 274 289 l 411 289 l 410 425 l 550 426 l 551 571 l 410 571 l 410 714 l 275 714 l 275 858 l 132 858 l 132 1000 l 422 1000 l 422 861 l 564 861 l 564 718 l 701 718 l 701 574 l 850 574 l 850 426 z "},"?":{"ha":1135,"x_min":139,"x_max":996,"o":"m 996 575 l 851 575 l 851 431 l 717 431 l 717 288 l 426 288 l 426 426 l 569 426 l 569 569 l 704 569 l 704 857 l 282 857 l 282 857 l 276 857 l 276 718 l 139 718 l 139 857 l 276 857 l 276 857 l 282 857 l 282 1000 l 851 1000 l 851 865 l 996 857 l 996 575 m 708 0 l 426 0 l 426 139 l 708 139 l 708 0 z "},"A":{"ha":1135,"x_min":-6,"x_max":996,"o":"m 996 0 l 714 0 l 714 288 l 276 288 l 276 0 l -6 0 l -6 857 l 139 857 l 139 1000 l 851 1000 l 851 857 l 996 857 l 996 0 m 708 431 l 708 857 l 282 857 l 282 431 l 708 431 z "},"B":{"ha":1135,"x_min":-6,"x_max":996,"o":"m 996 143 l 851 143 l 851 0 l -6 0 l -6 1000 l 851 1000 l 851 857 l 996 857 l 996 575 l 851 575 l 851 425 l 996 425 l 996 143 m 708 575 l 708 857 l 282 857 l 282 575 l 708 575 m 708 143 l 708 426 l 282 426 l 282 143 l 708 143 z "},"C":{"ha":1135,"x_min":-6,"x_max":996,"o":"m 996 718 l 857 718 l 857 863 l 278 863 l 278 143 l 849 143 l 849 282 l 996 282 l 996 143 l 851 143 l 851 0 l 139 0 l 139 135 l -6 144 l -6 857 l 139 857 l 139 1000 l 861 1000 l 861 857 l 996 857 l 996 718 z "},"D":{"ha":1135,"x_min":-6,"x_max":996,"o":"m 996 143 l 851 143 l 851 0 l -6 0 l -6 1000 l 851 1000 l 851 857 l 996 857 l 996 143 m 708 143 l 708 857 l 282 857 l 282 143 l 708 143 z "},"E":{"ha":1135,"x_min":-6,"x_max":996,"o":"m 996 0 l -6 0 l -6 1000 l 996 1000 l 996 863 l 278 863 l 278 569 l 851 569 l 851 431 l 278 431 l 278 139 l 996 139 l 996 0 z "},"F":{"ha":1135,"x_min":-6,"x_max":996,"o":"m 996 863 l 278 863 l 278 569 l 851 569 l 851 431 l 276 431 l 276 0 l -6 0 l -6 1000 l 996 1000 l 996 863 z "},"G":{"ha":1135,"x_min":-6,"x_max":996,"o":"m 996 144 l 851 135 l 851 0 l 139 0 l 139 135 l -6 144 l -6 857 l 139 857 l 139 1000 l 851 1000 l 851 863 l 857 863 l 857 857 l 996 857 l 996 718 l 857 718 l 857 857 l 851 857 l 851 863 l 276 863 l 276 147 l 714 147 l 714 431 l 569 431 l 569 569 l 996 569 l 996 144 z "},"H":{"ha":1135,"x_min":-6,"x_max":996,"o":"m 996 0 l 714 0 l 714 431 l 276 431 l 276 0 l -6 0 l -6 1000 l 278 1000 l 278 569 l 714 569 l 714 1000 l 996 1000 l 996 0 z "},"I":{"ha":1135,"x_min":282,"x_max":851,"o":"m 851 0 l 282 0 l 282 139 l 426 139 l 426 863 l 282 863 l 282 1000 l 851 1000 l 851 863 l 708 863 l 708 139 l 851 139 l 851 0 z "},"J":{"ha":1135,"x_min":-6,"x_max":996,"o":"m 996 139 l 851 139 l 851 0 l 139 0 l 139 139 l -6 139 l -6 426 l 278 426 l 278 151 l 713 151 l 714 1000 l 996 1000 l 996 139 z "},"K":{"ha":1135,"x_min":-6,"x_max":996,"o":"m 996 0 l 704 0 l 704 144 l 563 144 l 561 289 l 425 288 l 425 426 l 276 426 l 276 0 l -6 0 l -6 1000 l 276 1000 l 276 574 l 426 574 l 426 718 l 563 718 l 563 861 l 704 861 l 704 1000 l 996 1000 l 996 858 l 851 858 l 851 714 l 717 714 l 717 571 l 576 571 l 576 426 l 718 425 l 718 289 l 853 289 l 853 143 l 996 143 l 996 0 z "},"L":{"ha":1135,"x_min":-6,"x_max":996,"o":"m 996 0 l -6 0 l -6 1000 l 278 1000 l 278 139 l 996 139 l 996 0 z "},"M":{"ha":1135,"x_min":-6,"x_max":996,"o":"m 996 0 l 714 0 l 714 575 l 574 575 l 574 431 l 274 431 l 274 575 l 133 575 l 133 0 l -6 0 l -6 1000 l 133 1000 l 133 857 l 286 857 l 286 713 l 561 713 l 561 857 l 714 857 l 714 1000 l 996 1000 l 996 0 z "},"N":{"ha":1135,"x_min":-6,"x_max":996,"o":"m 996 0 l 857 0 l 857 144 l 704 144 l 704 288 l 561 288 l 561 432 l 417 432 l 417 571 l 274 571 l 274 714 l 133 714 l 133 0 l -6 0 l -6 1000 l 286 1000 l 286 857 l 431 857 l 431 722 l 572 722 l 574 574 l 718 574 l 718 431 l 857 431 l 857 1000 l 996 1000 l 996 0 z "},"O":{"ha":1135,"x_min":-6,"x_max":996,"o":"m 996 143 l 851 143 l 851 0 l 139 0 l 139 144 l -6 144 l -6 857 l 139 857 l 139 1000 l 851 1000 l 851 857 l 996 857 l 996 143 m 708 143 l 708 857 l 282 857 l 282 143 l 708 143 z "},"P":{"ha":1135,"x_min":-6,"x_max":996,"o":"m 996 449 l 851 449 l 851 306 l 276 306 l 276 0 l -6 0 l -6 1000 l 851 1000 l 851 857 l 996 857 l 996 449 m 708 449 l 708 857 l 282 857 l 282 449 l 708 449 z "},"Q":{"ha":1135,"x_min":-6,"x_max":996,"o":"m 996 143 l 851 144 l 851 -8 l 989 -10 l 989 -128 l 713 -128 l 713 -8 l 139 -8 l 139 144 l -6 144 l -6 857 l 139 857 l 139 1000 l 851 1000 l 851 857 q 996 857 985 857 l 996 143 m 851 144 l 851 857 l 282 857 l 282 143 l 564 143 l 564 288 l 714 288 l 714 144 l 851 144 z "},"R":{"ha":1135,"x_min":-6,"x_max":996,"o":"m 996 0 l 714 0 l 714 426 l 276 426 l 276 0 l -6 0 l -6 1000 l 851 1000 l 851 857 l 996 857 l 996 575 l 851 575 l 851 435 l 996 425 l 996 0 m 708 575 l 708 857 l 282 857 l 282 575 l 708 575 z "},"S":{"ha":1135,"x_min":-6,"x_max":996,"o":"m 996 143 l 851 143 l 851 0 l 139 0 l 139 139 l 133 139 l 133 144 l -6 144 l -6 282 l 133 292 l 133 144 l 139 144 l 139 139 l 569 139 l 569 279 l 417 279 l 417 426 l 139 426 l 139 567 l -6 575 l -6 839 l 139 839 l 139 982 l 851 982 l 851 844 l 857 844 l 857 839 l 996 839 l 996 700 l 857 700 l 857 839 l 851 839 l 851 844 l 278 844 l 278 694 l 431 694 l 431 574 l 708 574 l 708 435 l 853 425 l 853 286 l 996 286 l 996 143 z "},"T":{"ha":1135,"x_min":-6,"x_max":851,"o":"m 851 863 l 564 863 l 564 0 l 282 0 l 282 863 l -6 863 l -6 1000 l 851 1000 l 851 863 z "},"U":{"ha":1135,"x_min":-6,"x_max":996,"o":"m 996 144 l 851 135 l 851 0 l 139 0 l 139 139 l -6 139 l -6 1000 l 278 1000 l 278 147 l 714 147 l 714 1000 l 996 1000 l 996 144 z "},"V":{"ha":1135,"x_min":-6,"x_max":996,"o":"m 996 288 l 851 288 l 851 143 l 714 143 l 714 139 l 708 139 l 708 0 l -6 0 l -6 1000 l 278 1000 l 278 139 l 708 139 l 708 143 l 714 143 l 714 1000 l 996 1000 l 996 288 z "},"W":{"ha":1135,"x_min":-6,"x_max":996,"o":"m 996 144 l 853 144 l 851 0 l -6 0 l -6 1000 l 133 1000 l 133 143 l 282 143 l 282 1000 l 564 1000 l 564 143 l 714 143 l 714 1000 l 996 1000 l 996 144 z "},"X":{"ha":1135,"x_min":-6,"x_max":996,"o":"m 996 0 l 714 0 l 714 425 l 708 425 l 708 431 l 282 431 l 282 426 l 276 426 l 276 0 l -6 0 l -6 282 l 139 282 l 139 426 l 276 426 l 276 431 l 282 431 l 282 569 l 278 569 l 278 575 l 139 575 l 139 718 l -6 718 l -6 1000 l 278 1000 l 278 575 l 282 575 l 282 569 l 708 569 l 708 575 l 714 575 l 714 1000 l 996 1000 l 996 718 l 851 718 l 851 575 l 714 575 l 714 569 l 708 569 l 708 431 l 714 431 l 714 425 l 851 425 l 851 282 l 996 282 l 996 0 z "},"Y":{"ha":1135,"x_min":-6,"x_max":853,"o":"m 853 569 l 708 571 l 708 431 l 574 431 l 574 0 l 274 0 l 274 431 l 139 431 l 139 571 l -6 571 l -6 1000 l 286 1000 l 286 579 l 561 579 l 561 1000 l 851 1000 l 853 569 z "},"Z":{"ha":1135,"x_min":139,"x_max":996,"o":"m 996 718 l 851 718 l 851 575 l 717 575 l 717 431 l 574 431 l 574 288 l 429 288 l 429 139 l 996 139 l 996 0 l 139 0 l 139 282 l 282 282 l 282 426 l 417 426 l 417 569 l 561 569 l 561 714 l 704 714 l 704 863 l 139 863 l 139 1000 l 996 1000 l 996 718 z "},"[":{"ha":1135,"x_min":426,"x_max":851,"o":"m 851 0 l 426 0 l 426 1001 l 851 1000 l 851 863 l 564 863 l 564 139 l 851 139 l 851 0 z "},"\\":{"ha":1135,"x_min":139,"x_max":996,"o":"m 996 147 l 857 147 l 857 285 l 851 285 l 851 290 l 714 290 l 714 429 l 708 429 l 708 433 l 571 433 l 571 572 l 565 572 l 565 578 l 426 578 l 426 717 l 421 717 l 421 721 l 283 721 l 283 860 l 278 860 l 278 865 l 139 865 l 139 1003 l 278 1003 l 278 865 l 283 865 l 283 860 l 421 860 l 421 721 l 426 721 l 426 717 l 565 717 l 565 578 l 571 578 l 571 572 l 708 572 l 708 433 l 714 433 l 714 429 l 851 429 l 851 290 l 857 290 l 857 285 l 996 285 l 996 147 z "},"]":{"ha":1135,"x_min":426,"x_max":851,"o":"m 851 0 l 426 0 l 426 139 l 714 139 l 714 863 l 426 863 l 426 1000 l 851 1001 l 851 0 z "},"_":{"ha":1135,"x_min":139,"x_max":996,"o":"m 996 0 l 139 0 l 139 139 l 996 139 l 996 0 z "},"a":{"ha":1135,"x_min":139,"x_max":996,"o":"m 996 0 l 282 0 l 282 144 l 139 144 l 139 426 l 282 426 l 282 575 l 139 575 l 139 714 l 282 713 l 282 857 l 851 857 l 851 713 l 996 713 l 996 0 m 708 575 l 708 713 l 282 713 l 282 575 l 708 575 m 708 143 l 708 426 l 426 426 l 426 143 l 708 143 z "},"b":{"ha":1135,"x_min":139,"x_max":996,"o":"m 996 143 l 851 143 l 851 0 l 139 0 l 139 1000 l 421 1000 l 421 713 l 851 713 l 851 569 l 996 569 l 996 143 m 708 143 l 708 569 l 426 569 l 426 143 l 708 143 z "},"c":{"ha":1135,"x_min":139,"x_max":996,"o":"m 996 575 l 857 575 l 857 718 l 421 718 l 421 143 l 849 143 l 849 282 l 996 282 l 996 143 l 851 143 l 851 0 l 282 0 l 282 135 l 139 144 l 139 713 l 282 713 l 282 857 l 861 857 l 861 713 l 996 713 l 996 575 z "},"d":{"ha":1135,"x_min":139,"x_max":996,"o":"m 996 0 l 282 0 l 282 144 l 139 144 l 139 569 l 282 569 l 282 714 l 714 714 l 714 1000 l 996 1000 l 996 0 m 708 143 l 708 569 l 426 569 l 426 143 l 708 143 z "},"e":{"ha":1135,"x_min":139,"x_max":996,"o":"m 996 431 l 421 431 l 421 143 l 849 143 l 849 282 l 996 282 l 996 143 l 851 143 l 851 0 l 282 0 l 282 135 l 139 144 l 139 713 l 282 713 l 282 857 l 861 857 l 861 713 l 996 713 l 996 431 m 708 575 l 708 713 l 426 713 l 426 575 l 708 575 z "},"f":{"ha":1135,"x_min":139,"x_max":996,"o":"m 996 575 l 708 575 l 708 0 l 426 0 l 426 575 l 139 575 l 139 714 l 426 714 l 426 857 l 569 857 l 569 1000 l 996 1000 l 996 863 l 708 863 l 708 713 l 996 713 l 996 575 z "},"g":{"ha":1135,"x_min":138,"x_max":994,"o":"m 994 1 l 851 1 l 851 -143 l 282 -143 l 282 -4 l 276 -4 l 276 1 l 138 1 l 138 140 l 276 140 l 276 1 l 282 1 l 282 -4 l 713 -4 l 713 289 l 282 289 l 282 432 l 138 432 l 138 714 l 282 714 l 282 858 l 994 858 l 994 1 m 707 432 l 707 714 l 425 714 l 425 432 l 707 432 z "},"h":{"ha":1135,"x_min":139,"x_max":996,"o":"m 996 0 l 714 0 l 714 571 l 421 571 l 421 0 l 139 0 l 139 1000 l 421 1000 l 421 713 l 851 713 l 851 578 l 996 569 l 996 0 z "},"i":{"ha":1135,"x_min":424,"x_max":706,"o":"m 706 719 l 424 719 l 424 1001 l 706 1001 l 706 719 m 706 1 l 424 1 l 424 571 l 706 571 l 706 1 z "},"j":{"ha":1135,"x_min":139,"x_max":851,"o":"m 851 863 l 569 863 l 569 1000 l 851 1000 l 851 863 m 851 0 l 708 0 l 708 -121 l 282 -121 l 282 0 q 139 0 149 0 l 139 139 l 421 139 l 422 1 l 569 0 l 569 713 l 851 713 l 851 0 z "},"k":{"ha":1135,"x_min":139,"x_max":996,"o":"m 996 0 l 707 0 l 707 135 l 569 144 l 569 283 l 421 283 l 421 0 l 139 0 l 139 1000 l 421 1000 l 421 431 l 569 431 l 569 574 l 707 574 l 707 714 l 996 714 l 996 571 l 851 571 l 851 426 l 719 426 l 719 290 l 853 282 l 853 143 l 996 143 l 996 0 z "},"l":{"ha":1135,"x_min":282,"x_max":708,"o":"m 708 0 l 426 0 l 426 863 l 282 863 l 282 1000 l 708 1000 l 708 0 z "},"m":{"ha":1135,"x_min":-6,"x_max":996,"o":"m 996 0 l 714 0 l 714 714 l 564 714 l 564 0 l 282 0 l 282 714 l 133 714 l 133 0 l -6 0 l -6 857 l 851 857 l 853 713 l 996 713 l 996 0 z "},"n":{"ha":1135,"x_min":139,"x_max":996,"o":"m 996 0 l 714 0 l 714 714 l 421 714 l 421 0 l 139 0 l 139 857 l 851 857 l 853 713 l 996 713 l 996 0 z "},"o":{"ha":1135,"x_min":139,"x_max":996,"o":"m 996 143 l 851 143 l 851 0 l 282 0 l 282 144 l 139 144 l 139 713 l 282 713 l 282 857 l 851 857 l 851 713 l 996 713 l 996 143 m 708 143 l 708 713 l 426 713 l 426 143 l 708 143 z "},"p":{"ha":1135,"x_min":139,"x_max":996,"o":"m 996 289 l 853 289 l 853 144 l 421 144 l 421 -142 l 139 -142 l 139 858 l 853 858 l 853 714 l 996 714 l 996 289 m 708 289 l 708 714 l 426 714 l 426 289 l 708 289 z "},"q":{"ha":1135,"x_min":138,"x_max":994,"o":"m 994 -142 l 713 -142 l 713 144 l 282 144 l 282 289 l 138 289 l 138 714 l 282 714 l 282 858 l 994 858 l 994 -142 m 707 289 l 707 714 l 425 714 l 425 289 l 707 289 z "},"r":{"ha":1135,"x_min":139,"x_max":996,"o":"m 996 718 l 569 718 l 569 713 l 564 713 l 564 575 l 421 575 l 421 0 l 139 0 l 139 857 l 421 857 l 421 713 l 564 713 l 564 718 l 569 718 l 569 857 l 996 857 l 996 718 z "},"s":{"ha":1135,"x_min":138,"x_max":996,"o":"m 996 713 l 993 567 l 857 565 l 857 713 l 851 713 l 851 718 l 429 718 l 429 578 l 717 578 l 718 424 l 853 425 l 853 286 l 996 286 l 996 143 l 851 143 l 851 0 l 282 0 l 282 139 l 278 139 l 278 144 l 139 144 l 138 292 l 278 292 l 278 144 l 282 144 l 282 139 l 704 139 l 704 279 l 417 279 l 418 429 l 282 432 l 282 571 l 139 571 l 139 714 l 282 714 l 282 857 l 851 857 l 851 718 l 857 718 l 857 713 l 996 713 z "},"t":{"ha":1135,"x_min":139,"x_max":996,"o":"m 996 0 l 569 0 l 569 135 l 426 144 l 426 718 l 139 718 l 139 857 l 426 857 l 426 1000 l 708 1000 l 708 857 l 996 857 l 996 718 l 708 718 l 708 147 l 996 139 l 996 0 z "},"u":{"ha":1135,"x_min":139,"x_max":996,"o":"m 996 0 l 282 0 l 282 139 l 139 139 l 139 857 l 421 857 l 421 143 l 714 143 l 714 857 l 996 857 l 996 0 z "},"v":{"ha":1135,"x_min":139,"x_max":996,"o":"m 996 288 l 851 288 l 851 143 l 714 143 l 714 139 l 708 139 l 708 0 l 139 0 l 139 857 l 421 857 l 421 139 l 708 139 l 708 143 l 714 143 l 714 857 l 996 857 l 996 288 z "},"w":{"ha":1135,"x_min":-6,"x_max":996,"o":"m 996 144 l 851 131 l 851 0 l -6 0 l -6 857 l 133 857 l 133 143 l 282 143 l 282 857 l 564 857 l 564 143 l 714 143 l 714 857 l 996 857 l 996 144 z "},"x":{"ha":1135,"x_min":139,"x_max":996,"o":"m 996 0 l 714 0 l 714 422 l 421 422 l 421 0 l 139 0 l 139 425 l 282 435 l 282 571 l 139 571 l 139 857 l 421 857 l 421 579 l 714 579 l 714 857 l 996 857 l 996 575 l 851 565 l 851 431 l 996 431 l 996 0 z "},"y":{"ha":1135,"x_min":138,"x_max":994,"o":"m 994 1 l 850 1 l 850 -143 l 282 -143 l 282 -4 l 276 -4 l 276 1 l 138 1 l 138 140 l 276 140 l 276 1 l 282 1 l 282 -4 l 713 -4 l 713 289 l 281 289 l 281 428 l 138 428 l 138 858 l 419 858 l 419 432 l 713 432 l 713 858 l 994 858 l 994 1 z "},"z":{"ha":1135,"x_min":139,"x_max":996,"o":"m 996 575 l 851 575 l 851 431 l 717 431 l 717 288 l 574 288 l 574 139 l 996 139 l 996 0 l 139 0 l 139 139 l 282 139 l 282 282 l 426 282 l 426 426 l 561 426 l 561 569 l 704 569 l 704 718 l 139 718 l 139 857 l 996 857 l 996 575 z "},"{":{"ha":1135,"x_min":271,"x_max":860,"o":"m 860 1000 l 858 863 l 553 863 l 553 143 l 857 142 l 856 0 l 415 0 l 415 146 l 271 144 l 271 857 l 415 857 l 415 1000 l 860 1000 z "},"|":{"ha":1135,"x_min":418,"x_max":557,"o":"m 557 1001 l 554 0 l 419 0 l 418 1001 l 557 1001 z "},"}":{"ha":1135,"x_min":267,"x_max":856,"o":"m 856 144 l 711 146 l 713 0 l 271 0 l 269 142 l 574 143 l 574 863 l 268 863 l 267 1000 l 713 1000 l 713 857 l 856 857 l 856 144 z "}}}
